<svg width="32" height="32" viewBox="0 0 32 32" fill="none" xmlns="http://www.w3.org/2000/svg">
<rect width="32" height="32" rx="6" fill="#FFB94A"/>
<path d="M7.66669 11.2L15.9667 7.66666L24.3333 11.2V20.8L16.0334 24.3667L7.66669 20.8V11.2Z" fill="#FFB94A" stroke="black"/>
<path fill-rule="evenodd" clip-rule="evenodd" d="M26 16.7358L26 21.8667L16 26L6 21.8667L6 10.1333L16 6L26 10.1333L26 16.7358ZM24.3333 15.2L24.3333 11.2L16 7.66667L7.66667 11.2L7.66667 15.2L13.8667 15.2L14.5333 13.1333L16.2 13.1333L14.2667 19.1333L12.6 19.1333L13.3333 16.8667L7.66667 16.8667L7.66667 20.8L16 24.3333L24.3333 20.8L24.3333 16.8667L18.1333 16.8667L17.4 19.1333L15.7333 19.1333L17.6667 13.1333L19.3333 13.1333L18.6667 15.2L24.3333 15.2Z" fill="black"/>
</svg>
