<svg width="32" height="32" viewBox="0 0 32 32" fill="none" xmlns="http://www.w3.org/2000/svg">
<rect width="32" height="32" rx="6" fill="#0C63E4"/>
<path fill-rule="evenodd" clip-rule="evenodd" d="M6 13.4899C6 13.1958 6 13.0488 6.05722 12.9365C6.10755 12.8377 6.18787 12.7574 6.28665 12.7071C6.39896 12.6499 6.54597 12.6499 6.84 12.6499H14.8461C15.6942 12.6499 16.1183 12.6499 16.3146 12.8176C16.485 12.9631 16.5754 13.1815 16.5579 13.4048C16.5376 13.6623 16.2377 13.9621 15.638 14.5618L12.0989 18.1009C10.8994 19.3004 10.2997 19.9001 10.2592 20.4151C10.224 20.8618 10.4049 21.2983 10.7457 21.5894C11.1384 21.9248 11.9866 21.9248 13.6828 21.9248H17.0519C17.3384 21.9248 17.4817 21.9248 17.5707 21.9852C17.6484 22.0379 17.7017 22.1197 17.7185 22.2121C17.7378 22.3179 17.6799 22.4489 17.5642 22.711L16.8961 24.2241C16.816 24.4054 16.776 24.496 16.7126 24.5624C16.6565 24.6211 16.5876 24.6661 16.5112 24.6936C16.4248 24.7248 16.3257 24.7248 16.1276 24.7248H6.84C6.54597 24.7248 6.39896 24.7248 6.28665 24.6676C6.18787 24.6173 6.10755 24.537 6.05722 24.4382C6 24.3259 6 24.1789 6 23.8848V13.4899Z" fill="white"/>
<path fill-rule="evenodd" clip-rule="evenodd" d="M26 19.935C26 20.229 26 20.376 25.9428 20.4883C25.8925 20.5871 25.8122 20.6674 25.7134 20.7178C25.6011 20.775 25.4541 20.775 25.16 20.775H17.329C16.4808 20.775 16.0568 20.775 15.8604 20.6072C15.69 20.4617 15.5996 20.2434 15.6172 20.02C15.6374 19.7626 15.9373 19.4627 16.537 18.8631L20.0761 15.3239C21.2756 14.1245 21.8753 13.5247 21.9158 13.0098C21.951 12.5631 21.7701 12.1265 21.4294 11.8355C21.0366 11.5 20.1885 11.5 18.4922 11.5H14.639C14.3525 11.5 14.2092 11.5 14.1203 11.4397C14.0425 11.3869 13.9892 11.3051 13.9724 11.2127C13.9531 11.107 14.011 10.9759 14.1267 10.7138L15.104 8.50069C15.184 8.31949 15.224 8.22889 15.2874 8.16244C15.3435 8.1037 15.4125 8.05878 15.4888 8.0312C15.5753 8 15.6743 8 15.8724 8H25.16C25.4541 8 25.6011 8 25.7134 8.05722C25.8122 8.10755 25.8925 8.18787 25.9428 8.28665C26 8.39896 26 8.54597 26 8.84V19.935Z" fill="white"/>
</svg>
