<svg width="32" height="32" viewBox="0 0 32 32" fill="none" xmlns="http://www.w3.org/2000/svg">
<rect width="32" height="32" rx="6" fill="#04B3EB"/>
<g clip-path="url(#clip0_23579_10463)">
<path d="M14.5614 26C14.5137 25.9717 14.4891 25.922 14.4587 25.9182C12.7928 25.7124 11.324 25.0448 9.99419 24.0625C8.90005 23.2544 7.98425 22.2838 7.34684 21.0845C7.05078 20.5274 6.80243 19.9458 6.53375 19.3748C6.52247 19.3507 6.52436 19.3208 6.51424 19.2561C8.90338 19.2561 11.2796 19.2561 13.6647 19.2561C13.5048 19.6871 13.3421 20.1402 13.1629 20.5868C13.1441 20.6338 13.0278 20.6658 12.9566 20.6661C11.6922 20.6708 10.4278 20.6695 9.16335 20.6695C9.08612 20.6695 9.00888 20.6695 8.91897 20.6695C9.11163 21.2567 9.48635 21.6917 9.95144 22.0616C10.3982 22.4169 10.8425 22.7752 11.2939 23.1246C11.9633 23.6429 12.7368 23.9638 13.542 24.201C14.41 24.4566 15.3056 24.5794 16.2131 24.5464C17.3008 24.5067 18.3532 24.298 19.3601 23.8702C20.4945 23.3883 21.4673 22.6899 22.2968 21.7984C22.7557 21.3051 23.1481 20.7598 23.4711 20.1683C23.8657 19.4457 24.1568 18.6881 24.3481 17.8872C24.5413 17.0783 24.6048 16.2599 24.5479 15.4399C24.4664 14.2671 24.1483 13.1463 23.5997 12.098C23.2056 11.3449 22.7102 10.663 22.1109 10.0475C21.3622 9.27827 20.5119 8.65529 19.5345 8.20497C18.7603 7.84829 17.9579 7.56273 17.0975 7.49609C16.4767 7.448 15.8521 7.40025 15.231 7.41704C14.5297 7.436 13.8582 7.64162 13.2058 7.89291C12.2996 8.24197 11.4682 8.71294 10.7066 9.31513C9.99914 9.87453 9.39857 10.5235 8.91177 11.2696C8.65105 11.6692 8.45193 12.1076 8.20156 12.5721C11.6339 12.5721 14.9893 12.5721 18.3616 12.5721C18.2047 13.0353 18.0544 13.479 17.901 13.9318C17.1262 13.9318 16.3537 13.9288 15.5811 13.9323C12.7663 13.9452 9.9515 13.9584 7.13671 13.9768C6.80865 13.979 6.48081 14.014 6.11163 14.0363C6.16945 13.7997 6.21191 13.6006 6.26694 13.4049C6.635 12.0958 7.20805 10.8792 8.05846 9.80842C8.86686 8.79055 9.82799 7.92983 10.9743 7.27898C11.7907 6.81547 12.6564 6.47323 13.5621 6.2295C13.8466 6.15293 14.1467 6.13315 14.4391 6.08352C14.4847 6.07578 14.5267 6.04733 14.5557 6.01423C15.5102 6 16.4794 6 17.4689 6C17.5166 6.02828 17.5415 6.07849 17.5715 6.08166C18.4567 6.17491 19.2858 6.45077 20.0925 6.80898C20.9883 7.20675 21.7961 7.7289 22.5309 8.37307C23.615 9.32349 24.4988 10.4209 25.1325 11.7063C25.4998 12.4513 25.7186 13.2423 25.8622 14.0594C26.0337 15.035 26.0094 16.0169 25.9765 16.9949C25.9414 18.0346 25.6743 19.0342 25.252 19.9935C24.9224 20.7419 24.5222 21.4507 24.0219 22.0971C23.4899 22.7845 22.8779 23.3974 22.1806 23.9347C21.2019 24.6887 20.128 25.2518 18.9466 25.6143C18.5188 25.7455 18.0719 25.8168 17.6343 25.9179C17.6026 25.9252 17.5757 25.9533 17.5613 25.9858C16.5779 26 15.5798 26 14.5614 26Z" fill="white"/>
<path d="M6 15.9134C9.27696 15.8934 12.5539 15.8934 15.8611 15.8934C15.7365 16.2132 15.5842 16.4997 15.5153 16.8044C15.4064 17.2864 15.1214 17.3585 14.663 17.3549C11.789 17.332 8.91478 17.3433 6.02032 17.3433C6 16.8733 6 16.4033 6 15.9134Z" fill="white"/>
</g>
<defs>
<clipPath id="clip0_23579_10463">
<rect width="20" height="20" fill="white" transform="translate(6 6)"/>
</clipPath>
</defs>
</svg>
