<svg width="16" height="16" viewBox="0 0 16 16" fill="none" xmlns="http://www.w3.org/2000/svg">
<path fill-rule="evenodd" clip-rule="evenodd" d="M1.75 6.95833C1.75 4.08185 4.08185 1.75 6.95833 1.75C9.83482 1.75 12.1667 4.08185 12.1667 6.95833C12.1667 9.83482 9.83482 12.1667 6.95833 12.1667C4.08185 12.1667 1.75 9.83482 1.75 6.95833ZM6.95833 0.5C3.39149 0.5 0.5 3.39149 0.5 6.95833C0.5 10.5252 3.39149 13.4167 6.95833 13.4167C8.51668 13.4167 9.94611 12.8647 11.0618 11.9457L14.4331 15.3169C14.6771 15.561 15.0729 15.561 15.3169 15.3169C15.561 15.0729 15.561 14.6771 15.3169 14.4331L11.9457 11.0618C12.8647 9.94611 13.4167 8.51668 13.4167 6.95833C13.4167 3.39149 10.5252 0.5 6.95833 0.5Z" fill="#9B9DAA"/>
</svg>
