<svg xmlns="http://www.w3.org/2000/svg" width="20" height="20" viewBox="0 0 20 20" fill="none">
  <path d="M14.795 11.6666C15.8301 11.6666 16.6691 12.5057 16.6691 13.5407V14.3061C16.6691 14.7839 16.5198 15.2497 16.242 15.6385C14.9537 17.4412 12.8501 18.3342 9.9999 18.3342C7.14909 18.3342 5.04662 17.4408 3.76149 15.6372C3.48485 15.2489 3.33618 14.784 3.33618 14.3073V13.5407C3.33618 12.5057 4.17523 11.6666 5.21025 11.6666H14.795ZM9.9999 1.67053C12.3011 1.67053 14.1666 3.53601 14.1666 5.8372C14.1666 8.13839 12.3011 10.0039 9.9999 10.0039C7.69871 10.0039 5.83323 8.13839 5.83323 5.8372C5.83323 3.53601 7.69871 1.67053 9.9999 1.67053Z" fill="#9B9DAA"/>
</svg>