<svg xmlns="http://www.w3.org/2000/svg" width="20" height="21" viewBox="0 0 20 21" fill="none">
  <g clip-path="url(#clip0_29376_2324)">
    <path d="M9.72653 6.14301C8.99653 6.14301 7.86651 5.31301 6.67651 5.34301C5.10651 5.36301 3.66651 6.253 2.85651 7.663C1.22651 10.493 2.43651 14.673 4.02651 16.973C4.80651 18.093 5.72651 19.353 6.94651 19.313C8.11651 19.263 8.55653 18.553 9.97653 18.553C11.3865 18.553 11.7865 19.313 13.0265 19.283C14.2865 19.263 15.0865 18.143 15.8565 17.013C16.7465 15.713 17.1165 14.453 17.1365 14.383C17.1065 14.373 14.6865 13.443 14.6565 10.643C14.6365 8.303 16.5665 7.18301 16.6565 7.13301C15.5565 5.52301 13.8665 5.34301 13.2765 5.30301C11.7365 5.18301 10.4465 6.14301 9.72653 6.14301ZM12.3265 3.78301C12.9765 3.00301 13.4065 1.91301 13.2865 0.833008C12.3565 0.873008 11.2365 1.45301 10.5665 2.23301C9.96653 2.92301 9.44653 4.03301 9.58653 5.09301C10.6165 5.17301 11.6765 4.56301 12.3265 3.78301Z" fill="white"/>
  </g>
  <defs>
    <clipPath id="clip0_29376_2324">
      <rect width="20" height="20" fill="white" transform="translate(0 0.124512)"/>
    </clipPath>
  </defs>
</svg>