<svg xmlns="http://www.w3.org/2000/svg" width="28" height="29" viewBox="0 0 28 29" fill="none">
  <path fill-rule="evenodd" clip-rule="evenodd" d="M12.5209 2.79442C12.9707 2.53308 13.4808 2.39551 14 2.39551C14.5192 2.39551 15.0292 2.53307 15.479 2.79438L15.4808 2.79539L23.0161 7.13509L23.0192 7.13688C23.469 7.3986 23.8426 7.77491 24.1025 8.22807C24.3624 8.68123 24.4995 9.19531 24.5 9.71873V18.4026C24.4995 18.926 24.3624 19.4409 24.1025 19.8941C23.8426 20.3472 23.469 20.7235 23.0192 20.9852L23.0161 20.987L15.4808 25.3267L15.4791 25.3277C15.0497 25.5772 14.5654 25.7139 14.0707 25.7258C14.0474 25.7278 14.0238 25.7288 14 25.7288C13.9762 25.7288 13.9526 25.7278 13.9293 25.7258C13.4346 25.7139 12.9503 25.5772 12.5209 25.3277L12.5192 25.3267L4.98389 20.987L4.98077 20.9852C4.531 20.7235 4.15743 20.3472 3.89753 19.8941C3.63763 19.4409 3.50053 18.9268 3.5 18.4034V9.71956C3.50053 9.19614 3.63763 8.68123 3.89753 8.22807C4.15743 7.77491 4.531 7.3986 4.98077 7.13689L4.98388 7.13508L12.5209 2.79442ZM22.2115 19.5753L14.8077 23.8392V14.5321L22.8846 9.85378V18.4017C22.8844 18.6396 22.8221 18.8733 22.7039 19.0793C22.5861 19.2848 22.4167 19.4555 22.2129 19.5745L22.2115 19.5753ZM19.0604 6.73209L22.0549 8.45661L14 13.1222L10.8778 11.3137L19.0604 6.73209ZM9.24281 10.3667L17.4207 5.78775L14.6762 4.20714L14.6731 4.20534C14.4684 4.08627 14.2363 4.02357 14 4.02357C13.7637 4.02357 13.5316 4.08626 13.3269 4.20534L13.3238 4.20714L5.94513 8.45661L9.24281 10.3667Z" fill="#9B51E0"/>
</svg>