<svg xmlns="http://www.w3.org/2000/svg" width="28" height="29" viewBox="0 0 28 29" fill="none">
<path d="M16.043 4.20801H11.9596C11.4764 4.20801 11.0846 4.59976 11.0846 5.08301C11.0846 5.56626 11.4764 5.95801 11.9596 5.95801H16.043C16.5262 5.95801 16.918 5.56626 16.918 5.08301C16.918 4.59976 16.5262 4.20801 16.043 4.20801ZM16.043 2.45801C17.3719 2.45801 18.4702 3.44555 18.644 4.72681L18.6598 4.88467L18.6519 4.79069L20.7096 4.79134C22.1594 4.79134 23.3346 5.96659 23.3346 7.41634V23.1663C23.3346 24.6161 22.1594 25.7913 20.7096 25.7913H7.29297C5.84322 25.7913 4.66797 24.6161 4.66797 23.1663V7.41634C4.66797 5.96659 5.84322 4.79134 7.29297 4.79134L9.35073 4.79069L9.34164 4.88467L9.3586 4.72681C9.53242 3.44555 10.6307 2.45801 11.9596 2.45801H16.043ZM16.3346 19.958H9.33464C8.85139 19.958 8.45964 20.3498 8.45964 20.833C8.45964 21.3163 8.85139 21.708 9.33464 21.708H16.3346C16.8179 21.708 17.2096 21.3163 17.2096 20.833C17.2096 20.3498 16.8179 19.958 16.3346 19.958ZM14.0013 15.2913H9.33464C8.85139 15.2913 8.45964 15.6831 8.45964 16.1663C8.45964 16.6496 8.85139 17.0413 9.33464 17.0413H14.0013C14.4846 17.0413 14.8763 16.6496 14.8763 16.1663C14.8763 15.6831 14.4846 15.2913 14.0013 15.2913ZM18.668 10.6247H9.33464C8.85139 10.6247 8.45964 11.0164 8.45964 11.4997C8.45964 11.9829 8.85139 12.3747 9.33464 12.3747H18.668C19.1512 12.3747 19.543 11.9829 19.543 11.4997C19.543 11.0164 19.1512 10.6247 18.668 10.6247Z" fill="#F68900"/>
</svg>
