<svg xmlns="http://www.w3.org/2000/svg" width="28" height="29" viewBox="0 0 28 29" fill="none">
<path d="M18.375 2.45801C19.8247 2.45801 21 3.63326 21 5.08301V23.1663C21 24.6161 19.8247 25.7913 18.375 25.7913H9.625C8.17525 25.7913 7 24.6161 7 23.1663V5.08301C7 3.63326 8.17525 2.45801 9.625 2.45801H18.375ZM15.4583 21.1247H12.5417C12.0584 21.1247 11.6667 21.5164 11.6667 21.9997C11.6667 22.4829 12.0584 22.8747 12.5417 22.8747H15.4583C15.9416 22.8747 16.3333 22.4829 16.3333 21.9997C16.3333 21.5164 15.9416 21.1247 15.4583 21.1247Z" fill="#0D76FF"/>
</svg>