<svg xmlns="http://www.w3.org/2000/svg" width="20" height="21" viewBox="0 0 20 21" fill="none">
  <path d="M3.00728 2.29639L11.4934 10.7848L3.0082 19.2734C2.84732 19.2054 2.7064 19.0864 2.61214 18.9237C2.53868 18.7968 2.5 18.6528 2.5 18.5061V3.06353C2.5 2.719 2.70908 2.4233 3.00728 2.29639ZM12.0825 11.3739L14.0008 13.2923L4.88667 18.5698L12.0825 11.3739ZM14.7483 8.70889L17.0876 10.0637C17.4859 10.2943 17.6219 10.8041 17.3913 11.2023C17.3183 11.3283 17.2137 11.4331 17.0876 11.506L14.7475 12.8606L12.6717 10.7848L14.7483 8.70889ZM4.88667 2.99972L14.0017 8.27639L12.0825 10.1956L4.88667 2.99972Z" fill="white"/>
</svg>