<svg xmlns="http://www.w3.org/2000/svg" width="28" height="29" viewBox="0 0 28 29" fill="none">
<path fill-rule="evenodd" clip-rule="evenodd" d="M13.9987 25.7913C20.4422 25.7913 25.6654 20.5682 25.6654 14.1247C25.6654 7.68117 20.4422 2.45801 13.9987 2.45801C7.5552 2.45801 2.33203 7.68117 2.33203 14.1247C2.33203 20.5682 7.5552 25.7913 13.9987 25.7913ZM14.6174 6.50596C14.4533 6.34186 14.2308 6.24967 13.9987 6.24967C13.7666 6.24967 13.5441 6.34186 13.38 6.50596C13.2159 6.67005 13.1237 6.89261 13.1237 7.12467V7.49451C11.222 7.83517 9.6237 9.26434 9.6237 11.208C9.6237 13.1517 11.222 14.5808 13.1237 14.9215V18.9687C12.0317 18.6712 11.3737 17.8323 11.3737 17.0413C11.3737 16.8093 11.2815 16.5867 11.1174 16.4226C10.9533 16.2585 10.7308 16.1663 10.4987 16.1663C10.2666 16.1663 10.0441 16.2585 9.87998 16.4226C9.71588 16.5867 9.6237 16.8093 9.6237 17.0413C9.6237 18.985 11.222 20.4142 13.1237 20.7548V21.1247C13.1237 21.3567 13.2159 21.5793 13.38 21.7434C13.5441 21.9075 13.7666 21.9997 13.9987 21.9997C14.2308 21.9997 14.4533 21.9075 14.6174 21.7434C14.7815 21.5793 14.8737 21.3567 14.8737 21.1247V20.7548C16.7754 20.4142 18.3737 18.985 18.3737 17.0413C18.3737 15.0977 16.7754 13.6685 14.8737 13.3278V9.27951C15.9657 9.57817 16.6237 10.417 16.6237 11.208C16.6237 11.4401 16.7159 11.6626 16.88 11.8267C17.0441 11.9908 17.2666 12.083 17.4987 12.083C17.7308 12.083 17.9533 11.9908 18.1174 11.8267C18.2815 11.6626 18.3737 11.4401 18.3737 11.208C18.3737 9.26434 16.7754 7.83517 14.8737 7.49451V7.12467C14.8737 6.89261 14.7815 6.67005 14.6174 6.50596ZM11.3737 11.208C11.3737 10.417 12.0317 9.57816 13.1237 9.27949V13.1353C12.0317 12.8378 11.3737 11.999 11.3737 11.208ZM16.6237 17.0413C16.6237 17.8323 15.9657 18.6712 14.8737 18.9687V15.114C15.9657 15.4115 16.6237 16.2503 16.6237 17.0413Z" fill="#27AE54"/>
</svg>