<svg xmlns="http://www.w3.org/2000/svg" width="28" height="29" viewBox="0 0 28 29" fill="none">
<path d="M13.8928 16.4575L23.0439 16.4579C24.4937 16.4579 25.6689 17.6331 25.6689 19.0829V20.1388C25.6689 21.4148 25.1119 22.6272 24.1438 23.4583C22.3174 25.0263 19.7037 25.7926 16.332 25.7926L16.1231 25.7912C16.4757 25.0813 16.3894 24.209 15.8647 23.5787L15.7359 23.4378L13.1343 20.8432C13.6947 19.8782 13.9987 18.7739 13.9987 17.6247C13.9987 17.2261 13.9624 16.836 13.8928 16.4575ZM7.58203 12.3747C10.4815 12.3747 12.832 14.7252 12.832 17.6247C12.832 18.9008 12.3767 20.0705 11.6197 20.9804L14.9119 24.2637C15.254 24.605 15.2547 25.159 14.9134 25.5011C14.6031 25.8121 14.117 25.841 13.7742 25.5872L13.6759 25.5026L10.289 22.1239C9.49856 22.6005 8.57231 22.8747 7.58203 22.8747C4.68254 22.8747 2.33203 20.5241 2.33203 17.6247C2.33203 14.7252 4.68254 12.3747 7.58203 12.3747ZM7.58203 14.1247C5.64903 14.1247 4.08203 15.6917 4.08203 17.6247C4.08203 19.5576 5.64903 21.1247 7.58203 21.1247C9.51503 21.1247 11.082 19.5576 11.082 17.6247C11.082 15.6917 9.51503 14.1247 7.58203 14.1247ZM16.332 2.46338C19.5537 2.46338 22.1654 5.07505 22.1654 8.29671C22.1654 11.5184 19.5537 14.13 16.332 14.13C13.1104 14.13 10.4987 11.5184 10.4987 8.29671C10.4987 5.07505 13.1104 2.46338 16.332 2.46338Z" fill="#A2845E"/>
</svg>