<svg xmlns="http://www.w3.org/2000/svg" width="28" height="28" viewBox="0 0 28 28" fill="none">
<path d="M23.039 3.5C24.4283 3.5 25.5656 4.57936 25.6579 5.94528L25.664 6.125V18.3777C25.664 19.767 24.5846 20.9042 23.2187 20.9966L23.039 21.0027L18.0809 21.0023V23.9167L20.1237 23.9172C20.6069 23.9172 20.9987 24.3089 20.9987 24.7922C20.9987 25.2352 20.6695 25.6013 20.2424 25.6592L20.1237 25.6672H7.8737C7.39045 25.6672 6.9987 25.2754 6.9987 24.7922C6.9987 24.3492 7.32788 23.9831 7.75497 23.9252L7.8737 23.9172L9.9142 23.9167V21.0023L4.95703 21.0027C3.56769 21.0027 2.43045 19.9233 2.33809 18.5574L2.33203 18.3777V6.125C2.33203 4.73566 3.41139 3.59841 4.77731 3.50606L4.95703 3.5H23.039ZM16.3297 21.0023H11.663L11.6642 23.9172H16.3309L16.3297 21.0023ZM21.587 7H11.082C10.7599 7 10.4987 7.26117 10.4987 7.58333V16.9195C10.4987 17.2417 10.7599 17.5029 11.082 17.5029H21.587C21.9092 17.5029 22.1703 17.2417 22.1703 16.9195V7.58333C22.1703 7.26117 21.9092 7 21.587 7ZM8.74794 7H6.41468C6.09252 7 5.83135 7.26117 5.83135 7.58333V16.9195C5.83135 17.2417 6.09252 17.5029 6.41468 17.5029H8.74794C9.0701 17.5029 9.33127 17.2417 9.33127 16.9195V7.58333C9.33127 7.26117 9.0701 7 8.74794 7Z" fill="#409CFF"/>
</svg>