<svg width="198" height="32" viewBox="0 0 198 32" fill="none" xmlns="http://www.w3.org/2000/svg">
<path d="M175.481 0L180.895 11.3939H181.138L186.916 0H196.653L187.885 15.6768L197.421 31.5152H187.037L180.734 19.9596H180.411L174.431 31.5152H164.774L173.663 15.6768L165.542 0H175.481Z" fill="#1D72E9"/>
<path d="M163.746 18.5859C163.746 29.3333 160.958 32 149.766 32C138.574 32 135.786 29.3333 135.786 18.5859V0H144.271V18.5859C144.271 24.4848 144.836 25.1313 149.766 25.1313C154.695 25.1313 155.261 24.4848 155.261 18.5859V0H163.746V18.5859Z" fill="#1D72E9"/>
<path d="M122.861 0C131.265 0 133.366 1.81818 133.366 9.13131C133.366 14.3434 131.426 16.8081 127.022 17.4141C131.224 17.8586 133.366 19.7172 133.366 23.7576V31.5152H124.477V24.2424C124.477 20.7677 124.033 20.404 119.628 20.404H113.325V31.5152H104.841V0H122.861ZM113.325 13.9394H120.679C124.477 13.9394 124.881 13.5758 124.881 10.3434C124.881 7.23232 124.477 6.86869 120.679 6.86869H113.325V13.9394Z" fill="#1D72E9"/>
<path d="M85.1963 31.5152V7.27273H75.5397V0H103.419V7.27273H93.6811V31.5152H85.1963Z" fill="#1D72E9"/>
<path d="M62.2276 12.8485C58.066 12.8485 57.6215 13.4949 57.6215 19.3939C57.6215 25.2929 58.066 25.9394 62.2276 25.9394C66.3892 25.9394 66.8336 25.2929 66.8336 19.3939C66.8336 13.4949 66.3892 12.8485 62.2276 12.8485ZM49.5407 19.3939C49.5407 9.29289 52.0862 6.78784 62.2276 6.78784C72.369 6.78784 74.9144 9.29289 74.9144 19.3939C74.9144 29.4949 72.369 32 62.2276 32C52.0862 32 49.5407 29.4949 49.5407 19.3939Z" fill="white"/>
<path d="M30.9548 7.27264H38.6315V11.7575C39.3184 8.64638 41.5002 7.27264 45.5406 7.27264H48.3285V14.1413L42.874 14.0605C39.8841 14.0201 38.6315 15.1918 38.6315 17.8989V31.5151H30.9548V7.27264Z" fill="white"/>
<path d="M0 0H18.0202C26.4242 0 28.5252 2.10101 28.5252 10.505C28.5252 18.6667 26.5859 20.8081 18.7475 21.2121H8.48485V31.5152H0V0ZM8.48485 13.9394H15.8384C19.6364 13.9394 20.0404 13.6162 20.0404 10.5455C20.0404 7.23232 19.6364 6.86869 15.8384 6.86869H8.48485V13.9394Z" fill="white"/>
</svg>
